<?xml version="1.0" encoding="utf-8"?>
<!-- Generator: Adobe Illustrator 18.0.0, SVG Export Plug-In . SVG Version: 6.00 Build 0)  -->
<!DOCTYPE svg PUBLIC "-//W3C//DTD SVG 1.1//EN" "http://www.w3.org/Graphics/SVG/1.1/DTD/svg11.dtd">
<svg version="1.1" xmlns="http://www.w3.org/2000/svg" xmlns:xlink="http://www.w3.org/1999/xlink" x="0px" y="0px"
	 viewBox="0 0 45 45" enable-background="new 0 0 45 45" xml:space="preserve">
<g id="Layer_2">
</g>
<g id="Layer_1">
	<g>
		<path fill="#E33331" d="M22.4,0.4c0,0,13-0.6,19.8,12.5c-3.6,0-20.9,0-20.9,0s-4-0.1-7.3,4.7c-1,2-2,4.1-0.8,8.2
			c-1.7-2.9-9-15.5-9-15.5S9.3,0.9,22.4,0.4z"/>
		<path fill="#FCD70E" d="M41.6,33.5c0,0-6,11.5-20.7,11c1.8-3.1,10.5-18.1,10.5-18.1s2.1-3.4-0.4-8.7c-1.3-1.8-2.5-3.8-6.7-4.8
			c3.3,0,17.9,0,17.9,0S47.7,21.9,41.6,33.5z"/>
		<path fill="#68B251" d="M3.4,33.6c0,0-7-10.9,0.9-23.4C6,13.3,14.7,28.3,14.7,28.3s1.9,3.5,7.7,4c2.2-0.2,4.5-0.3,7.5-3.4
			c-1.6,2.9-9,15.5-9,15.5S10.4,44.7,3.4,33.6z"/>
		<path fill="#64AA4D" d="M20.9,44.6l2.9-12.3c0,0,3.2-0.3,6-3.2C28.1,32,20.9,44.6,20.9,44.6z"/>
		<circle fill="#FFFFFF" cx="22.4" cy="22.6" r="9.8"/>
		<linearGradient id="SVGID_1_" gradientUnits="userSpaceOnUse" x1="22.3884" y1="14.5812" x2="22.3884" y2="30.3206">
			<stop  offset="0" style="stop-color:#97C2E7"/>
			<stop  offset="1" style="stop-color:#1A6DB1"/>
		</linearGradient>
		<circle fill="url(#SVGID_1_)" cx="22.4" cy="22.6" r="8.2"/>
		<path fill="#EFCD0E" d="M42.2,12.8l-12.1,3.6c0,0-1.8-2.7-5.8-3.6C27.8,12.8,42.2,12.8,42.2,12.8z"/>
		<path fill="#D7312E" d="M12.9,25.3c-1.7-3-8.7-15.1-8.7-15.1l9,8.9c0,0-0.9,1.9-0.6,4.6L12.9,25.3z"/>
	</g>
</g>
</svg>
