<?xml version="1.0" encoding="utf-8"?>
<!-- Generator: Adobe Illustrator 18.0.0, SVG Export Plug-In . SVG Version: 6.00 Build 0)  -->
<!DOCTYPE svg PUBLIC "-//W3C//DTD SVG 1.1//EN" "http://www.w3.org/Graphics/SVG/1.1/DTD/svg11.dtd">
<svg version="1.1" xmlns="http://www.w3.org/2000/svg" xmlns:xlink="http://www.w3.org/1999/xlink" x="0px" y="0px"
	 viewBox="0 0 45 45" enable-background="new 0 0 45 45" xml:space="preserve">
<g id="Layer_2">
</g>
<g id="Layer_1">
	<g>
		<g>
			<linearGradient id="SVGID_1_" gradientUnits="userSpaceOnUse" x1="22.5" y1="44.5" x2="22.5" y2="0.5">
				<stop  offset="0.25" style="stop-color:#DBDBDA"/>
				<stop  offset="1" style="stop-color:#FFFFFF"/>
			</linearGradient>
			<circle fill="url(#SVGID_1_)" cx="22.5" cy="22.5" r="22"/>
		</g>
		<g>
			<radialGradient id="SVGID_2_" cx="22.2411" cy="16.2875" r="25.8057" gradientUnits="userSpaceOnUse">
				<stop  offset="0" style="stop-color:#4ECFD1"/>
				<stop  offset="0.1814" style="stop-color:#48C1D0"/>
				<stop  offset="0.5269" style="stop-color:#399BCF"/>
				<stop  offset="0.938" style="stop-color:#2466CC"/>
				<stop  offset="1" style="stop-color:#2356B5"/>
			</radialGradient>
			<circle fill="url(#SVGID_2_)" cx="22.5" cy="22.5" r="20.4"/>
		</g>
		<g>
			<linearGradient id="SVGID_3_" gradientUnits="userSpaceOnUse" x1="22.5" y1="3.2073" x2="22.5" y2="6.4227">
				<stop  offset="0" style="stop-color:#FFFFFF"/>
				<stop  offset="1" style="stop-color:#DDDDDD"/>
			</linearGradient>
			<polygon fill="url(#SVGID_3_)" points="22.3,6.4 22.7,6.4 22.7,4.8 22.7,3.2 22.7,3.2 22.3,3.2 			"/>
			<linearGradient id="SVGID_4_" gradientUnits="userSpaceOnUse" x1="16.4514" y1="4.3158" x2="16.4514" y2="7.4473">
				<stop  offset="0" style="stop-color:#FFFFFF"/>
				<stop  offset="1" style="stop-color:#DDDDDD"/>
			</linearGradient>
			<polygon fill="url(#SVGID_4_)" points="15.8,4.4 16.9,7.4 17.2,7.3 16.1,4.3 			"/>
			<linearGradient id="SVGID_5_" gradientUnits="userSpaceOnUse" x1="5.0837" y1="18.9915" x2="5.0837" y2="19.8665">
				<stop  offset="0" style="stop-color:#FFFFFF"/>
				<stop  offset="1" style="stop-color:#DDDDDD"/>
			</linearGradient>
			<polygon fill="url(#SVGID_5_)" points="6.7,19.5 5.1,19.3 5.1,19.3 3.5,19 3.5,19 3.5,19 3.5,19.3 6.6,19.9 			"/>
			<linearGradient id="SVGID_6_" gradientUnits="userSpaceOnUse" x1="4.815" y1="22.3392" x2="4.815" y2="22.6608">
				<stop  offset="0" style="stop-color:#FFFFFF"/>
				<stop  offset="1" style="stop-color:#DDDDDD"/>
			</linearGradient>
			<polygon fill="url(#SVGID_6_)" points="6.4,22.7 6.4,22.3 4.8,22.3 3.2,22.3 3.2,22.3 3.2,22.7 3.2,22.7 4.8,22.7 			"/>
			<linearGradient id="SVGID_7_" gradientUnits="userSpaceOnUse" x1="5.0837" y1="25.1335" x2="5.0837" y2="26.0085">
				<stop  offset="0" style="stop-color:#FFFFFF"/>
				<stop  offset="1" style="stop-color:#DDDDDD"/>
			</linearGradient>
			<polygon fill="url(#SVGID_7_)" points="6.6,25.1 5.1,25.4 5.1,25.4 3.5,25.7 3.5,25.7 3.5,25.7 3.5,26 6.7,25.5 			"/>
			<linearGradient id="SVGID_8_" gradientUnits="userSpaceOnUse" x1="5.8815" y1="27.8477" x2="5.8815" y2="29.2496">
				<stop  offset="0" style="stop-color:#FFFFFF"/>
				<stop  offset="1" style="stop-color:#DDDDDD"/>
			</linearGradient>
			<polygon fill="url(#SVGID_8_)" points="7.3,27.8 5.5,28.5 4.3,28.9 4.3,28.9 4.3,28.9 4.4,29.2 7.4,28.1 			"/>
			<linearGradient id="SVGID_9_" gradientUnits="userSpaceOnUse" x1="7.1843" y1="30.3994" x2="7.1843" y2="32.2856">
				<stop  offset="0" style="stop-color:#FFFFFF"/>
				<stop  offset="1" style="stop-color:#DDDDDD"/>
			</linearGradient>
			<polygon fill="url(#SVGID_9_)" points="8.5,30.4 5.7,32 5.9,32.3 8.7,30.7 			"/>
			<linearGradient id="SVGID_10_" gradientUnits="userSpaceOnUse" x1="8.9525" y1="32.7111" x2="8.9525" y2="35.0243">
				<stop  offset="0" style="stop-color:#FFFFFF"/>
				<stop  offset="1" style="stop-color:#DDDDDD"/>
			</linearGradient>
			<polygon fill="url(#SVGID_10_)" points="10.1,32.7 8.8,33.7 8.8,33.7 7.6,34.8 7.6,34.8 7.6,34.8 7.8,35 10.3,33 			"/>
			<linearGradient id="SVGID_11_" gradientUnits="userSpaceOnUse" x1="11.1323" y1="34.7126" x2="11.1323" y2="37.3824">
				<stop  offset="0" style="stop-color:#FFFFFF"/>
				<stop  offset="1" style="stop-color:#DDDDDD"/>
			</linearGradient>
			<polygon fill="url(#SVGID_11_)" points="12,34.7 11,35.9 11,35.9 10,37.2 10,37.2 10,37.2 10.2,37.4 12.3,34.9 			"/>
			<linearGradient id="SVGID_12_" gradientUnits="userSpaceOnUse" x1="13.6575" y1="36.3429" x2="13.6575" y2="39.2884">
				<stop  offset="0" style="stop-color:#FFFFFF"/>
				<stop  offset="1" style="stop-color:#DDDDDD"/>
			</linearGradient>
			<polygon fill="url(#SVGID_12_)" points="14.6,36.5 14.3,36.3 13.5,37.7 13.5,37.7 12.7,39.1 12.7,39.1 12.7,39.1 13,39.3 
				13,39.3 13,39.3 13.8,37.9 13.8,37.9 			"/>
			<linearGradient id="SVGID_13_" gradientUnits="userSpaceOnUse" x1="16.4514" y1="37.5527" x2="16.4514" y2="40.6842">
				<stop  offset="0" style="stop-color:#FFFFFF"/>
				<stop  offset="1" style="stop-color:#DDDDDD"/>
			</linearGradient>
			<polygon fill="url(#SVGID_13_)" points="16.3,39.1 16.3,39.1 15.8,40.3 15.8,40.6 16.1,40.7 17.2,37.7 16.9,37.6 			"/>
			<linearGradient id="SVGID_14_" gradientUnits="userSpaceOnUse" x1="19.429" y1="38.3051" x2="19.429" y2="41.5275">
				<stop  offset="0" style="stop-color:#FFFFFF"/>
				<stop  offset="1" style="stop-color:#DDDDDD"/>
			</linearGradient>
			<polygon fill="url(#SVGID_14_)" points="19.5,38.3 19,41.5 19.3,41.5 19.3,41.5 19.3,41.5 19.6,39.9 19.6,39.9 19.9,38.4 			"/>
			<linearGradient id="SVGID_16_" gradientUnits="userSpaceOnUse" x1="22.5" y1="38.5773" x2="22.5" y2="41.7927">
				<stop  offset="0" style="stop-color:#FFFFFF"/>
				<stop  offset="1" style="stop-color:#DDDDDD"/>
			</linearGradient>
			<polygon fill="url(#SVGID_16_)" points="22.3,40.2 22.3,41.8 22.3,41.8 22.7,41.8 22.7,38.6 22.3,38.6 			"/>
			<linearGradient id="SVGID_18_" gradientUnits="userSpaceOnUse" x1="25.571" y1="38.3051" x2="25.571" y2="41.5275">
				<stop  offset="0" style="stop-color:#FFFFFF"/>
				<stop  offset="1" style="stop-color:#DDDDDD"/>
			</linearGradient>
			<polygon fill="url(#SVGID_18_)" points="25.1,38.4 25.4,39.9 25.4,39.9 25.7,41.5 25.7,41.5 25.7,41.5 26,41.5 25.5,38.3 			"/>
			<linearGradient id="SVGID_19_" gradientUnits="userSpaceOnUse" x1="28.5486" y1="37.5527" x2="28.5486" y2="40.6842">
				<stop  offset="0" style="stop-color:#FFFFFF"/>
				<stop  offset="1" style="stop-color:#DDDDDD"/>
			</linearGradient>
			<polygon fill="url(#SVGID_19_)" points="27.8,37.7 28.9,40.7 29.2,40.6 28.1,37.6 			"/>
			<linearGradient id="SVGID_20_" gradientUnits="userSpaceOnUse" x1="33.8677" y1="34.7126" x2="33.8677" y2="37.3824">
				<stop  offset="0" style="stop-color:#FFFFFF"/>
				<stop  offset="1" style="stop-color:#DDDDDD"/>
			</linearGradient>
			<polygon fill="url(#SVGID_20_)" points="32.7,34.9 33.7,36.2 33.7,36.2 34.6,37.1 34.8,37.4 35,37.2 33,34.7 			"/>
			<linearGradient id="SVGID_21_" gradientUnits="userSpaceOnUse" x1="37.8157" y1="30.3994" x2="37.8157" y2="32.2856">
				<stop  offset="0" style="stop-color:#FFFFFF"/>
				<stop  offset="1" style="stop-color:#DDDDDD"/>
			</linearGradient>
			<polygon fill="url(#SVGID_21_)" points="36.3,30.7 38.5,31.9 39.1,32.3 39.1,32.3 39.1,32.3 39.3,32 36.5,30.4 			"/>
			<linearGradient id="SVGID_22_" gradientUnits="userSpaceOnUse" x1="39.1185" y1="27.8477" x2="39.1185" y2="29.2496">
				<stop  offset="0" style="stop-color:#FFFFFF"/>
				<stop  offset="1" style="stop-color:#DDDDDD"/>
			</linearGradient>
			<polygon fill="url(#SVGID_22_)" points="37.6,28.1 40.6,29.2 40.7,28.9 37.7,27.8 			"/>
			<linearGradient id="SVGID_23_" gradientUnits="userSpaceOnUse" x1="40.185" y1="22.3392" x2="40.185" y2="22.6608">
				<stop  offset="0" style="stop-color:#FFFFFF"/>
				<stop  offset="1" style="stop-color:#DDDDDD"/>
			</linearGradient>
			<polygon fill="url(#SVGID_23_)" points="41.8,22.3 41.8,22.3 40.2,22.3 38.6,22.3 38.6,22.7 40.2,22.7 40.2,22.7 41.8,22.7 
				41.8,22.7 41.8,22.7 			"/>
			<linearGradient id="SVGID_24_" gradientUnits="userSpaceOnUse" x1="39.9163" y1="18.9915" x2="39.9163" y2="19.8665">
				<stop  offset="0" style="stop-color:#FFFFFF"/>
				<stop  offset="1" style="stop-color:#DDDDDD"/>
			</linearGradient>
			<polygon fill="url(#SVGID_24_)" points="38.4,19.9 39.9,19.6 39.9,19.6 41.5,19.3 41.5,19.3 41.5,19.3 41.5,19 38.3,19.5 			"/>
			<linearGradient id="SVGID_25_" gradientUnits="userSpaceOnUse" x1="36.0475" y1="9.9757" x2="36.0475" y2="12.2889">
				<stop  offset="0" style="stop-color:#FFFFFF"/>
				<stop  offset="1" style="stop-color:#DDDDDD"/>
			</linearGradient>
			<polygon fill="url(#SVGID_25_)" points="34.9,12.3 36.2,11.3 36.2,11.3 37.4,10.2 37.4,10.2 37.4,10.2 37.2,10 34.7,12 			"/>
			<linearGradient id="SVGID_26_" gradientUnits="userSpaceOnUse" x1="33.8677" y1="7.6176" x2="33.8677" y2="10.2874">
				<stop  offset="0" style="stop-color:#FFFFFF"/>
				<stop  offset="1" style="stop-color:#DDDDDD"/>
			</linearGradient>
			<polygon fill="url(#SVGID_26_)" points="32.7,10.1 33,10.3 34,9.1 34,9.1 35,7.8 35,7.8 35,7.8 34.8,7.6 34.8,7.6 34.8,7.6 
				33.7,8.8 33.7,8.8 			"/>
			<linearGradient id="SVGID_27_" gradientUnits="userSpaceOnUse" x1="31.3425" y1="5.7116" x2="31.3425" y2="8.6571">
				<stop  offset="0" style="stop-color:#FFFFFF"/>
				<stop  offset="1" style="stop-color:#DDDDDD"/>
			</linearGradient>
			<polygon fill="url(#SVGID_27_)" points="32,5.7 32,5.7 31.2,7.1 31.2,7.1 30.4,8.5 30.7,8.7 31.5,7.3 31.5,7.3 32.3,5.9 
				32.3,5.9 32.3,5.9 32,5.7 			"/>
			<linearGradient id="SVGID_28_" gradientUnits="userSpaceOnUse" x1="28.5486" y1="4.3158" x2="28.5486" y2="7.4473">
				<stop  offset="0" style="stop-color:#FFFFFF"/>
				<stop  offset="1" style="stop-color:#DDDDDD"/>
			</linearGradient>
			<polygon fill="url(#SVGID_28_)" points="27.8,7.3 28.1,7.4 28.7,5.9 28.7,5.9 29,5.1 29.2,4.4 28.9,4.3 			"/>
			<linearGradient id="SVGID_29_" gradientUnits="userSpaceOnUse" x1="25.571" y1="3.4725" x2="25.571" y2="6.6949">
				<stop  offset="0" style="stop-color:#FFFFFF"/>
				<stop  offset="1" style="stop-color:#DDDDDD"/>
			</linearGradient>
			<polygon fill="url(#SVGID_29_)" points="25.7,3.5 25.7,3.5 25.4,5.1 25.4,5.1 25.1,6.6 25.5,6.7 26,3.5 25.7,3.5 			"/>
			<linearGradient id="SVGID_30_" gradientUnits="userSpaceOnUse" x1="20.8886" y1="3.2667" x2="20.8886" y2="4.8963">
				<stop  offset="0" style="stop-color:#FFFFFF"/>
				<stop  offset="1" style="stop-color:#DDDDDD"/>
			</linearGradient>
			<polygon fill="url(#SVGID_30_)" points="20.7,3.3 20.8,4.9 21.1,4.9 21,3.3 			"/>
			<linearGradient id="SVGID_31_" gradientUnits="userSpaceOnUse" x1="19.429" y1="3.4725" x2="19.429" y2="6.6949">
				<stop  offset="0" style="stop-color:#FFFFFF"/>
				<stop  offset="1" style="stop-color:#DDDDDD"/>
			</linearGradient>
			<polygon fill="url(#SVGID_31_)" points="19.6,5.1 19.3,3.5 19.3,3.5 19.3,3.5 19,3.5 19.5,6.7 19.9,6.6 19.6,5.1 			"/>
			<linearGradient id="SVGID_32_" gradientUnits="userSpaceOnUse" x1="17.7147" y1="3.8231" x2="17.7147" y2="5.4592">
				<stop  offset="0" style="stop-color:#FFFFFF"/>
				<stop  offset="1" style="stop-color:#DDDDDD"/>
			</linearGradient>
			<polygon fill="url(#SVGID_32_)" points="17.4,3.9 17.8,5.5 18.1,5.4 17.7,3.8 			"/>
			<linearGradient id="SVGID_33_" gradientUnits="userSpaceOnUse" x1="14.6863" y1="4.9469" x2="14.6863" y2="6.5399">
				<stop  offset="0" style="stop-color:#FFFFFF"/>
				<stop  offset="1" style="stop-color:#DDDDDD"/>
			</linearGradient>
			<polygon fill="url(#SVGID_33_)" points="14.2,5.1 14.9,6.5 15.2,6.4 14.5,4.9 			"/>
			<linearGradient id="SVGID_34_" gradientUnits="userSpaceOnUse" x1="13.6575" y1="5.7116" x2="13.6575" y2="8.6571">
				<stop  offset="0" style="stop-color:#FFFFFF"/>
				<stop  offset="1" style="stop-color:#DDDDDD"/>
			</linearGradient>
			<polygon fill="url(#SVGID_34_)" points="12.7,5.9 13,6.3 14.3,8.7 14.6,8.5 13.8,7.1 13.8,7.1 13,5.7 13,5.7 13,5.7 12.7,5.9 
				12.7,5.9 			"/>
			<linearGradient id="SVGID_35_" gradientUnits="userSpaceOnUse" x1="11.8952" y1="6.6041" x2="11.8952" y2="8.1055">
				<stop  offset="0" style="stop-color:#FFFFFF"/>
				<stop  offset="1" style="stop-color:#DDDDDD"/>
			</linearGradient>
			<polygon fill="url(#SVGID_35_)" points="11.3,6.8 12.2,8.1 12.5,7.9 11.6,6.6 			"/>
			<linearGradient id="SVGID_36_" gradientUnits="userSpaceOnUse" x1="11.1323" y1="7.6176" x2="11.1323" y2="10.2874">
				<stop  offset="0" style="stop-color:#FFFFFF"/>
				<stop  offset="1" style="stop-color:#DDDDDD"/>
			</linearGradient>
			<polygon fill="url(#SVGID_36_)" points="10,7.8 11,9.1 11,9.1 12,10.3 12.3,10.1 11.3,8.8 11.3,8.8 10.2,7.6 10.2,7.6 10.2,7.6 
				10,7.8 10,7.8 			"/>
			<linearGradient id="SVGID_37_" gradientUnits="userSpaceOnUse" x1="9.4264" y1="8.7443" x2="9.4264" y2="10.1085">
				<stop  offset="0" style="stop-color:#FFFFFF"/>
				<stop  offset="1" style="stop-color:#DDDDDD"/>
			</linearGradient>
			<polygon fill="url(#SVGID_37_)" points="10.1,9.9 9,8.7 8.7,9 9.9,10.1 			"/>
			<linearGradient id="SVGID_38_" gradientUnits="userSpaceOnUse" x1="8.9525" y1="9.9757" x2="8.9525" y2="12.2889">
				<stop  offset="0" style="stop-color:#FFFFFF"/>
				<stop  offset="1" style="stop-color:#DDDDDD"/>
			</linearGradient>
			<polygon fill="url(#SVGID_38_)" points="8.8,11.3 8.8,11.3 10.1,12.3 10.3,12 7.8,10 7.6,10.2 8.7,11.1 			"/>
			<linearGradient id="SVGID_39_" gradientUnits="userSpaceOnUse" x1="7.3548" y1="11.3025" x2="7.3548" y2="12.488">
				<stop  offset="0" style="stop-color:#FFFFFF"/>
				<stop  offset="1" style="stop-color:#DDDDDD"/>
			</linearGradient>
			<polygon fill="url(#SVGID_39_)" points="8.1,12.2 6.8,11.3 6.6,11.6 7.9,12.5 			"/>
			<linearGradient id="SVGID_40_" gradientUnits="userSpaceOnUse" x1="7.1843" y1="12.7144" x2="7.1843" y2="14.6006">
				<stop  offset="0" style="stop-color:#FFFFFF"/>
				<stop  offset="1" style="stop-color:#DDDDDD"/>
			</linearGradient>
			<polygon fill="url(#SVGID_40_)" points="7.1,13.8 7.1,13.8 8.5,14.6 8.7,14.3 7.3,13.5 7.3,13.5 5.9,12.7 5.9,12.7 5.9,12.7 
				5.7,13 6.6,13.5 			"/>
			<linearGradient id="SVGID_41_" gradientUnits="userSpaceOnUse" x1="5.7434" y1="14.2008" x2="5.7434" y2="15.1717">
				<stop  offset="0" style="stop-color:#FFFFFF"/>
				<stop  offset="1" style="stop-color:#DDDDDD"/>
			</linearGradient>
			<polygon fill="url(#SVGID_41_)" points="6.5,14.9 5.1,14.2 4.9,14.5 6.4,15.2 			"/>
			<linearGradient id="SVGID_42_" gradientUnits="userSpaceOnUse" x1="5.8815" y1="15.7504" x2="5.8815" y2="17.1523">
				<stop  offset="0" style="stop-color:#FFFFFF"/>
				<stop  offset="1" style="stop-color:#DDDDDD"/>
			</linearGradient>
			<polygon fill="url(#SVGID_42_)" points="4.3,16.1 5,16.3 7.3,17.2 7.4,16.9 5.9,16.3 5.9,16.3 4.4,15.8 4.4,15.8 4.4,15.8 
				4.3,16.1 4.3,16.1 			"/>
			<linearGradient id="SVGID_43_" gradientUnits="userSpaceOnUse" x1="4.6412" y1="17.3514" x2="4.6412" y2="18.0781">
				<stop  offset="0" style="stop-color:#FFFFFF"/>
				<stop  offset="1" style="stop-color:#DDDDDD"/>
			</linearGradient>
			<polygon fill="url(#SVGID_43_)" points="5.5,17.8 3.9,17.4 3.8,17.7 5.4,18.1 			"/>
			<linearGradient id="SVGID_44_" gradientUnits="userSpaceOnUse" x1="4.0815" y1="20.6584" x2="4.0815" y2="21.1188">
				<stop  offset="0" style="stop-color:#FFFFFF"/>
				<stop  offset="1" style="stop-color:#DDDDDD"/>
			</linearGradient>
			<polygon fill="url(#SVGID_44_)" points="4.9,20.8 3.3,20.7 3.3,21 4.9,21.1 			"/>
			<linearGradient id="SVGID_45_" gradientUnits="userSpaceOnUse" x1="4.0815" y1="23.8812" x2="4.0815" y2="24.3416">
				<stop  offset="0" style="stop-color:#FFFFFF"/>
				<stop  offset="1" style="stop-color:#DDDDDD"/>
			</linearGradient>
			<polygon fill="url(#SVGID_45_)" points="4.9,23.9 3.3,24 3.3,24.3 4.9,24.2 			"/>
			<linearGradient id="SVGID_46_" gradientUnits="userSpaceOnUse" x1="4.6412" y1="26.9219" x2="4.6412" y2="27.6486">
				<stop  offset="0" style="stop-color:#FFFFFF"/>
				<stop  offset="1" style="stop-color:#DDDDDD"/>
			</linearGradient>
			<polygon fill="url(#SVGID_46_)" points="5.4,26.9 3.8,27.3 3.9,27.6 5.5,27.2 			"/>
			<linearGradient id="SVGID_47_" gradientUnits="userSpaceOnUse" x1="5.7434" y1="29.8283" x2="5.7434" y2="30.7992">
				<stop  offset="0" style="stop-color:#FFFFFF"/>
				<stop  offset="1" style="stop-color:#DDDDDD"/>
			</linearGradient>
			<polygon fill="url(#SVGID_47_)" points="6.4,29.8 4.9,30.5 5.1,30.8 6.5,30.1 			"/>
			<linearGradient id="SVGID_48_" gradientUnits="userSpaceOnUse" x1="7.3548" y1="32.512" x2="7.3548" y2="33.6975">
				<stop  offset="0" style="stop-color:#FFFFFF"/>
				<stop  offset="1" style="stop-color:#DDDDDD"/>
			</linearGradient>
			<polygon fill="url(#SVGID_48_)" points="7.9,32.5 6.6,33.4 6.8,33.7 8.1,32.8 			"/>
			<linearGradient id="SVGID_49_" gradientUnits="userSpaceOnUse" x1="9.4264" y1="34.8915" x2="9.4264" y2="36.2557">
				<stop  offset="0" style="stop-color:#FFFFFF"/>
				<stop  offset="1" style="stop-color:#DDDDDD"/>
			</linearGradient>
			<polygon fill="url(#SVGID_49_)" points="9.9,34.9 8.7,36 9,36.3 10.1,35.1 			"/>
			<linearGradient id="SVGID_50_" gradientUnits="userSpaceOnUse" x1="11.8952" y1="36.8945" x2="11.8952" y2="38.3959">
				<stop  offset="0" style="stop-color:#FFFFFF"/>
				<stop  offset="1" style="stop-color:#DDDDDD"/>
			</linearGradient>
			<polygon fill="url(#SVGID_50_)" points="11.3,38.2 11.6,38.4 12.5,37.1 12.2,36.9 			"/>
			<linearGradient id="SVGID_51_" gradientUnits="userSpaceOnUse" x1="14.6863" y1="38.4601" x2="14.6863" y2="40.0531">
				<stop  offset="0" style="stop-color:#FFFFFF"/>
				<stop  offset="1" style="stop-color:#DDDDDD"/>
			</linearGradient>
			<polygon fill="url(#SVGID_51_)" points="14.2,39.9 14.5,40.1 15.2,38.6 14.9,38.5 			"/>
			<linearGradient id="SVGID_52_" gradientUnits="userSpaceOnUse" x1="17.7147" y1="39.5408" x2="17.7147" y2="41.1769">
				<stop  offset="0" style="stop-color:#FFFFFF"/>
				<stop  offset="1" style="stop-color:#DDDDDD"/>
			</linearGradient>
			<polygon fill="url(#SVGID_52_)" points="17.4,41.1 17.7,41.2 18.1,39.6 17.8,39.5 			"/>
			<linearGradient id="SVGID_53_" gradientUnits="userSpaceOnUse" x1="20.8886" y1="40.1037" x2="20.8886" y2="41.7333">
				<stop  offset="0" style="stop-color:#FFFFFF"/>
				<stop  offset="1" style="stop-color:#DDDDDD"/>
			</linearGradient>
			<polygon fill="url(#SVGID_53_)" points="20.7,41.7 21,41.7 21.1,40.1 20.8,40.1 			"/>
			<linearGradient id="SVGID_54_" gradientUnits="userSpaceOnUse" x1="24.1114" y1="40.1037" x2="24.1114" y2="41.7333">
				<stop  offset="0" style="stop-color:#FFFFFF"/>
				<stop  offset="1" style="stop-color:#DDDDDD"/>
			</linearGradient>
			<polygon fill="url(#SVGID_54_)" points="23.9,40.1 24,41.7 24.3,41.7 24.2,40.1 			"/>
			<linearGradient id="SVGID_55_" gradientUnits="userSpaceOnUse" x1="27.2853" y1="39.5408" x2="27.2853" y2="41.1769">
				<stop  offset="0" style="stop-color:#FFFFFF"/>
				<stop  offset="1" style="stop-color:#DDDDDD"/>
			</linearGradient>
			<polygon fill="url(#SVGID_55_)" points="26.9,39.6 27.3,41.2 27.6,41.1 27.2,39.5 			"/>
			<linearGradient id="SVGID_56_" gradientUnits="userSpaceOnUse" x1="30.3137" y1="38.4601" x2="30.3137" y2="40.0531">
				<stop  offset="0" style="stop-color:#FFFFFF"/>
				<stop  offset="1" style="stop-color:#DDDDDD"/>
			</linearGradient>
			<polygon fill="url(#SVGID_56_)" points="29.8,38.6 30.5,40.1 30.8,39.9 30.1,38.5 			"/>
			<linearGradient id="SVGID_57_" gradientUnits="userSpaceOnUse" x1="31.3425" y1="36.3429" x2="31.3425" y2="39.2884">
				<stop  offset="0" style="stop-color:#FFFFFF"/>
				<stop  offset="1" style="stop-color:#DDDDDD"/>
			</linearGradient>
			<polygon fill="url(#SVGID_57_)" points="32.3,39.1 32,38.7 30.7,36.3 30.4,36.5 31.2,37.9 31.2,37.9 32,39.3 32,39.3 32,39.3 
				32.3,39.1 32.3,39.1 			"/>
			<linearGradient id="SVGID_58_" gradientUnits="userSpaceOnUse" x1="33.1048" y1="36.8945" x2="33.1048" y2="38.3959">
				<stop  offset="0" style="stop-color:#FFFFFF"/>
				<stop  offset="1" style="stop-color:#DDDDDD"/>
			</linearGradient>
			<polygon fill="url(#SVGID_58_)" points="32.5,37.1 33.4,38.4 33.7,38.2 32.8,36.9 			"/>
			<linearGradient id="SVGID_59_" gradientUnits="userSpaceOnUse" x1="35.5736" y1="34.8915" x2="35.5736" y2="36.2557">
				<stop  offset="0" style="stop-color:#FFFFFF"/>
				<stop  offset="1" style="stop-color:#DDDDDD"/>
			</linearGradient>
			<polygon fill="url(#SVGID_59_)" points="34.9,35.1 36,36.3 36.3,36 35.1,34.9 			"/>
			<linearGradient id="SVGID_61_" gradientUnits="userSpaceOnUse" x1="36.0475" y1="32.7111" x2="36.0475" y2="35.0243">
				<stop  offset="0" style="stop-color:#FFFFFF"/>
				<stop  offset="1" style="stop-color:#DDDDDD"/>
			</linearGradient>
			<polygon fill="url(#SVGID_61_)" points="36.2,33.7 36.2,33.7 34.9,32.7 34.7,33 37.2,35 37.4,34.8 36.9,34.4 			"/>
			<linearGradient id="SVGID_63_" gradientUnits="userSpaceOnUse" x1="37.6452" y1="32.512" x2="37.6452" y2="33.6975">
				<stop  offset="0" style="stop-color:#FFFFFF"/>
				<stop  offset="1" style="stop-color:#DDDDDD"/>
			</linearGradient>
			<polygon fill="url(#SVGID_63_)" points="36.9,32.8 38.2,33.7 38.4,33.4 37.1,32.5 			"/>
			<linearGradient id="SVGID_64_" gradientUnits="userSpaceOnUse" x1="39.2566" y1="29.8283" x2="39.2566" y2="30.7992">
				<stop  offset="0" style="stop-color:#FFFFFF"/>
				<stop  offset="1" style="stop-color:#DDDDDD"/>
			</linearGradient>
			<polygon fill="url(#SVGID_64_)" points="38.5,30.1 39.9,30.8 40.1,30.5 38.6,29.8 			"/>
			<linearGradient id="SVGID_65_" gradientUnits="userSpaceOnUse" x1="40.3588" y1="26.9219" x2="40.3588" y2="27.6486">
				<stop  offset="0" style="stop-color:#FFFFFF"/>
				<stop  offset="1" style="stop-color:#DDDDDD"/>
			</linearGradient>
			<polygon fill="url(#SVGID_65_)" points="39.5,27.2 41.1,27.6 41.2,27.3 39.6,26.9 			"/>
			<linearGradient id="SVGID_66_" gradientUnits="userSpaceOnUse" x1="39.9163" y1="25.1335" x2="39.9163" y2="26.0085">
				<stop  offset="0" style="stop-color:#FFFFFF"/>
				<stop  offset="1" style="stop-color:#DDDDDD"/>
			</linearGradient>
			<polygon fill="url(#SVGID_66_)" points="41.5,25.7 39.9,25.4 39.9,25.4 38.4,25.1 38.3,25.5 41.5,26 41.5,25.7 41.5,25.7 			"/>
			<linearGradient id="SVGID_67_" gradientUnits="userSpaceOnUse" x1="40.9185" y1="23.8812" x2="40.9185" y2="24.3416">
				<stop  offset="0" style="stop-color:#FFFFFF"/>
				<stop  offset="1" style="stop-color:#DDDDDD"/>
			</linearGradient>
			<polygon fill="url(#SVGID_67_)" points="40.1,24.2 41.7,24.3 41.7,24 40.1,23.9 			"/>
			<linearGradient id="SVGID_68_" gradientUnits="userSpaceOnUse" x1="40.9185" y1="20.6584" x2="40.9185" y2="21.1188">
				<stop  offset="0" style="stop-color:#FFFFFF"/>
				<stop  offset="1" style="stop-color:#DDDDDD"/>
			</linearGradient>
			<polygon fill="url(#SVGID_68_)" points="40.1,21.1 41.7,21 41.7,20.7 40.1,20.8 			"/>
			<linearGradient id="SVGID_69_" gradientUnits="userSpaceOnUse" x1="40.3588" y1="17.3514" x2="40.3588" y2="18.0781">
				<stop  offset="0" style="stop-color:#FFFFFF"/>
				<stop  offset="1" style="stop-color:#DDDDDD"/>
			</linearGradient>
			<polygon fill="url(#SVGID_69_)" points="39.6,18.1 41.2,17.7 41.1,17.4 39.5,17.8 			"/>
			<linearGradient id="SVGID_70_" gradientUnits="userSpaceOnUse" x1="39.1185" y1="15.7504" x2="39.1185" y2="17.1523">
				<stop  offset="0" style="stop-color:#FFFFFF"/>
				<stop  offset="1" style="stop-color:#DDDDDD"/>
			</linearGradient>
			<polygon fill="url(#SVGID_70_)" points="39.1,16.3 39.1,16.3 37.6,16.9 37.7,17.2 39.2,16.6 39.2,16.6 40.7,16.1 40.7,16.1 
				40.7,16.1 40.6,15.8 39.4,16.2 			"/>
			<linearGradient id="SVGID_71_" gradientUnits="userSpaceOnUse" x1="39.2566" y1="14.2008" x2="39.2566" y2="15.1717">
				<stop  offset="0" style="stop-color:#FFFFFF"/>
				<stop  offset="1" style="stop-color:#DDDDDD"/>
			</linearGradient>
			<polygon fill="url(#SVGID_71_)" points="38.6,15.2 40.1,14.5 39.9,14.2 38.5,14.9 			"/>
			<linearGradient id="SVGID_72_" gradientUnits="userSpaceOnUse" x1="37.8157" y1="12.7144" x2="37.8157" y2="14.6006">
				<stop  offset="0" style="stop-color:#FFFFFF"/>
				<stop  offset="1" style="stop-color:#DDDDDD"/>
			</linearGradient>
			<polygon fill="url(#SVGID_72_)" points="37.7,13.5 37.7,13.5 36.3,14.3 36.5,14.6 37.9,13.8 37.9,13.8 39.3,13 39.3,13 39.3,13 
				39.1,12.7 39.1,12.7 39.1,12.7 			"/>
			<linearGradient id="SVGID_73_" gradientUnits="userSpaceOnUse" x1="37.6452" y1="11.3025" x2="37.6452" y2="12.488">
				<stop  offset="0" style="stop-color:#FFFFFF"/>
				<stop  offset="1" style="stop-color:#DDDDDD"/>
			</linearGradient>
			<polygon fill="url(#SVGID_73_)" points="37.1,12.5 38.4,11.6 38.2,11.3 36.9,12.2 			"/>
			<linearGradient id="SVGID_74_" gradientUnits="userSpaceOnUse" x1="35.5736" y1="8.7443" x2="35.5736" y2="10.1085">
				<stop  offset="0" style="stop-color:#FFFFFF"/>
				<stop  offset="1" style="stop-color:#DDDDDD"/>
			</linearGradient>
			<polygon fill="url(#SVGID_74_)" points="35.1,10.1 36.3,9 36,8.7 34.9,9.9 			"/>
			<linearGradient id="SVGID_75_" gradientUnits="userSpaceOnUse" x1="33.1048" y1="6.6041" x2="33.1048" y2="8.1055">
				<stop  offset="0" style="stop-color:#FFFFFF"/>
				<stop  offset="1" style="stop-color:#DDDDDD"/>
			</linearGradient>
			<polygon fill="url(#SVGID_75_)" points="33.7,6.8 33.4,6.6 32.5,7.9 32.8,8.1 			"/>
			<linearGradient id="SVGID_76_" gradientUnits="userSpaceOnUse" x1="30.3137" y1="4.9469" x2="30.3137" y2="6.5399">
				<stop  offset="0" style="stop-color:#FFFFFF"/>
				<stop  offset="1" style="stop-color:#DDDDDD"/>
			</linearGradient>
			<polygon fill="url(#SVGID_76_)" points="30.8,5.1 30.5,4.9 29.8,6.4 30.1,6.5 			"/>
			<linearGradient id="SVGID_77_" gradientUnits="userSpaceOnUse" x1="27.2853" y1="3.8231" x2="27.2853" y2="5.4592">
				<stop  offset="0" style="stop-color:#FFFFFF"/>
				<stop  offset="1" style="stop-color:#DDDDDD"/>
			</linearGradient>
			<polygon fill="url(#SVGID_77_)" points="26.9,5.4 27.2,5.5 27.6,3.9 27.3,3.8 			"/>
			<linearGradient id="SVGID_78_" gradientUnits="userSpaceOnUse" x1="24.0773" y1="3.2667" x2="24.0773" y2="4.8963">
				<stop  offset="0" style="stop-color:#FFFFFF"/>
				<stop  offset="1" style="stop-color:#DDDDDD"/>
			</linearGradient>
			<polygon fill="url(#SVGID_78_)" points="24.3,3.3 24,3.3 23.8,4.9 24.2,4.9 			"/>
		</g>
		<g opacity="0.16">
			<g>
				<polyline fill="#1D1D1B" points="36.7,9.6 25.1,24.9 20.3,20.1 				"/>
				<polyline fill="#1D1D1B" points="10,37 25.1,24.9 20.3,20.1 				"/>
			</g>
		</g>
		
			<linearGradient id="SVGID_79_" gradientUnits="userSpaceOnUse" x1="662.2703" y1="408.7207" x2="669.0535" y2="408.7207" gradientTransform="matrix(0.7095 0.7047 -0.7047 0.7095 -154.8043 -743.5315)">
			<stop  offset="0.5" style="stop-color:#E16160"/>
			<stop  offset="0.5" style="stop-color:#FF0000;stop-opacity:0.8"/>
		</linearGradient>
		<polyline fill="url(#SVGID_79_)" points="36.4,8.6 25,24.9 20.2,20.1 		"/>
		
			<linearGradient id="SVGID_80_" gradientUnits="userSpaceOnUse" x1="662.2703" y1="-1540.9332" x2="669.0535" y2="-1540.9332" gradientTransform="matrix(0.7095 0.7047 0.7047 -0.7095 629.2508 -1532.9883)">
			<stop  offset="0.5" style="stop-color:#F3F3F3"/>
			<stop  offset="0.5" style="stop-color:#B8B8B8"/>
		</linearGradient>
		<polyline fill="url(#SVGID_80_)" points="8.8,36.4 25,24.9 20.2,20.1 		"/>
	</g>
</g>
</svg>
