<?xml version="1.0" encoding="utf-8"?>
<!-- Generator: Adobe Illustrator 18.0.0, SVG Export Plug-In . SVG Version: 6.00 Build 0)  -->
<!DOCTYPE svg PUBLIC "-//W3C//DTD SVG 1.1//EN" "http://www.w3.org/Graphics/SVG/1.1/DTD/svg11.dtd">
<svg version="1.1" xmlns="http://www.w3.org/2000/svg" xmlns:xlink="http://www.w3.org/1999/xlink" x="0px" y="0px"
	 viewBox="0 0 45 45" enable-background="new 0 0 45 45" xml:space="preserve">
<g id="Layer_2">
</g>
<g id="Layer_1">
	<g>
		<path fill="#00CCFF" d="M16.2,25.9L16.2,25.9c0,1.6,0.3,3,1,4.3c0.8,1.4,1.9,2.5,3.3,3.3c1.4,0.8,2.9,1.2,4.6,1.2
			c1.7,0,3.2-0.4,4.6-1.2c1.4-0.8,2.5-1.9,3.3-3.3h10.9c-1.4,4-3.9,7.2-7.3,9.8c-3.5,2.5-7.4,3.8-11.7,3.8c-3.2,0-6.3-0.7-9.2-2.1
			c-6.4,3.1-11,3.3-13.9,0.5c-1-0.9-1.5-2.4-1.5-4.6c0-2.1,0.4-4.5,1.2-7.2c0.8-2.6,2.2-5.5,4.1-8.7c1.9-3.1,4.2-6,6.8-8.6
			c1.5-1.6,2.5-2.6,2.9-2.9c-3.8,1.8-7.2,4.7-10.3,8.5c1.1-4.5,3.5-8.1,7.1-11c3.6-2.9,7.8-4.3,12.5-4.3c0.5,0,1,0,1.5,0.1
			c3.4-1.5,6.5-2.4,9.4-2.6c2.8-0.2,4.8,0.3,6,1.4c2.3,2.4,2.5,6.1,0.6,11.2c1.8,3.1,2.7,6.5,2.7,10.1c0,0.9,0,1.6-0.1,2.3H33.9
			H16.2z M14.2,40.9c-4.1-2.5-7-6-8.6-10.6c-2.8,5.4-3.1,9.1-1.1,11.1C6.3,43.2,9.5,43.1,14.2,40.9z M33.1,20.6
			c-0.1-2.2-1-4.1-2.7-5.6c-1.7-1.6-3.6-2.3-5.8-2.3c-2.2,0-4.2,0.8-5.8,2.3c-1.7,1.6-2.5,3.4-2.7,5.6H33.1z M32.1,4.9
			c3.9,1.6,7,4.2,9.4,7.7c1.4-3.8,1.3-6.5-0.2-8C39.7,2.9,36.6,3,32.1,4.9z"/>
	</g>
</g>
</svg>
