<?xml version="1.0" encoding="utf-8"?>
<!-- Generator: Adobe Illustrator 18.0.0, SVG Export Plug-In . SVG Version: 6.00 Build 0)  -->
<!DOCTYPE svg PUBLIC "-//W3C//DTD SVG 1.1//EN" "http://www.w3.org/Graphics/SVG/1.1/DTD/svg11.dtd">
<svg version="1.1" xmlns="http://www.w3.org/2000/svg" xmlns:xlink="http://www.w3.org/1999/xlink" x="0px" y="0px"
	 viewBox="0 0 40 40" enable-background="new 0 0 40 40" xml:space="preserve">
<g id="Layer_2">
</g>
<g id="Layer_1">
	<g>
		<rect x="5" y="19" fill="#CCCCCC" width="8" height="2"/>
	</g>
	<g>
		<polygon fill="#CCCCCC" points="8.3,25.7 2.6,20 8.3,14.3 9.7,15.7 5.4,20 9.7,24.3 		"/>
	</g>
	<g>
		<rect x="27" y="19" fill="#CCCCCC" width="8" height="2"/>
	</g>
	<g>
		<polygon fill="#CCCCCC" points="31.7,25.7 30.3,24.3 34.6,20 30.3,15.7 31.7,14.3 37.4,20 		"/>
	</g>
	<g>
		<path d="M20,25c-2.8,0-5-2.2-5-5s2.2-5,5-5s5,2.2,5,5S22.8,25,20,25z M20,17c-1.7,0-3,1.3-3,3s1.3,3,3,3s3-1.3,3-3S21.7,17,20,17z
			"/>
	</g>
	<g>
		<rect x="19" y="27" width="2" height="8"/>
	</g>
	<g>
		<polygon points="25.7,31.7 20,37.4 14.3,31.7 15.7,30.3 20,34.6 24.3,30.3 		"/>
	</g>
	<g>
		<rect x="19" y="5" width="2" height="8"/>
	</g>
	<g>
		<polygon points="25.7,8.3 24.3,9.7 20,5.4 15.7,9.7 14.3,8.3 20,2.6 		"/>
	</g>
</g>
</svg>
