<?xml version="1.0" encoding="utf-8"?>
<!-- Generator: Adobe Illustrator 18.0.0, SVG Export Plug-In . SVG Version: 6.00 Build 0)  -->
<!DOCTYPE svg PUBLIC "-//W3C//DTD SVG 1.1//EN" "http://www.w3.org/Graphics/SVG/1.1/DTD/svg11.dtd">
<svg version="1.1" xmlns="http://www.w3.org/2000/svg" xmlns:xlink="http://www.w3.org/1999/xlink" x="0px" y="0px"
	 viewBox="0 0 44 44" enable-background="new 0 0 44 44" xml:space="preserve">
<g id="Layer_2">
</g>
<g id="Layer_1">
	<path fill="none" stroke="#CCCCCC" stroke-miterlimit="10" d="M38.2,22c0-8.9-7.2-16.2-16.2-16.2C13.1,5.8,5.8,13.1,5.8,22
		c0,8.9,7.2,16.2,16.2,16.2C30.9,38.2,38.2,30.9,38.2,22z M20.8,30.1c-2.5,0-3.7-1.5-3.7-3.9c0-2.1,0-2.9,0-4.4c0-1.2,0-2.2,0-4
		c0-2.2,1.3-3.9,3.7-3.9c0.3,0,0.9,0,1.2,0c0.3,0,0.9,0,1.2,0c2.4,0,3.7,1.8,3.7,3.9v0.9c0,0.5-0.3,0.8-0.8,0.8c-0.2,0-0.6,0-0.8,0
		c-0.2,0-0.6,0-0.8,0c-0.6,0-0.8-0.3-0.8-0.8v-0.8c0-0.6-0.4-1-1.1-1h-0.9c-0.7,0-1.1,0.4-1.1,1V26c0,0.6,0.4,1.1,1.1,1.1h0.8
		c0.8,0,1.1-0.5,1.1-1.1v-1c0-0.5,0.3-0.8,0.8-0.8c0.3,0,0.7,0,0.9,0c0.2,0,0.7,0,0.8,0c0.5,0,0.8,0.3,0.8,0.8v1.2
		c0,2.2-1.3,3.9-3.8,3.9c-0.3,0-0.7,0-1.2,0C21.7,30.1,21.1,30.1,20.8,30.1z"/>
</g>
</svg>
