<?xml version="1.0" encoding="utf-8"?>
<!-- Generator: Adobe Illustrator 18.0.0, SVG Export Plug-In . SVG Version: 6.00 Build 0)  -->
<!DOCTYPE svg PUBLIC "-//W3C//DTD SVG 1.1//EN" "http://www.w3.org/Graphics/SVG/1.1/DTD/svg11.dtd">
<svg version="1.1" xmlns="http://www.w3.org/2000/svg" xmlns:xlink="http://www.w3.org/1999/xlink" x="0px" y="0px"
	 viewBox="0 0 136.5 60.9" enable-background="new 0 0 136.5 60.9" xml:space="preserve">
<g id="Layer_2">
</g>
<g id="Layer_1">
	<g>
		<g>
			<path d="M20.2,40.5C9.1,40.5,0,31.4,0,20.2S9.1,0,20.2,0s20.2,9.1,20.2,20.2S31.4,40.5,20.2,40.5z M20.2,6C12.4,6,6,12.4,6,20.2
				s6.4,14.2,14.2,14.2s14.2-6.4,14.2-14.2S28.1,6,20.2,6z"/>
		</g>
		<g>
			<path d="M56.6,40.6c-7.2,0-13-5.8-13-13s5.8-13,13-13c7.2,0,13,5.8,13,13S63.8,40.6,56.6,40.6z M56.6,20.6c-3.9,0-7,3.1-7,7
				s3.1,7,7,7c3.9,0,7-3.1,7-7S60.4,20.6,56.6,20.6z"/>
		</g>
		<g>
			<circle cx="20.3" cy="20.3" r="6"/>
		</g>
		<g>
			<path d="M80.9,38v12.5h-6.2V15h6.2v2.6c0.8-1.5,3.3-3,6.1-3c7.4,0,11.5,5.1,11.5,13s-4.1,13-11.5,13C84.5,40.7,82,39.4,80.9,38z
				 M92,27.6c0-2.4-0.6-4.3-1.7-5.7c-1.1-1.4-2.5-2-4.2-2s-3.1,0.7-4.2,2c-1.1,1.3-1.6,3.2-1.6,5.7s0.5,4.3,1.6,5.7
				c1.1,1.3,2.5,2,4.2,2s3.1-0.7,4.2-2C91.4,31.9,92,30,92,27.6z"/>
			<path d="M119.8,18.7l-3.7,3.4c-1.2-1.4-2.5-2.2-4.2-2.2c-1.2,0-2.3,0.8-2.3,2.1c0,1,0.8,1.9,2.4,2.5l1.8,0.7l2.1,0.8
				c0.4,0.1,1,0.5,1.8,1c0.8,0.4,1.5,0.8,1.8,1.3c0.8,0.8,1.5,2.3,1.5,4.1c0,2.3-0.8,4.3-2.5,6c-1.7,1.6-3.8,2.5-6.5,2.5
				c-2.4,0-4.5-0.7-6.2-2.1c-1.8-1.3-3-3-3.8-4.8l5-2.7c1,2.8,2.7,4.2,5.1,4.2c2,0,3.1-0.9,3.1-2.7c0-0.8-0.4-1.5-1.4-1.9
				c-0.5-0.2-1-0.4-1.4-0.6c-0.8-0.4-2.6-1-3.5-1.4c-3.2-1.3-5.1-3.2-5.1-6.8c0-2,0.8-3.8,2.2-5.2s3.5-2.2,5.8-2.2
				C115.3,14.6,118.2,16.3,119.8,18.7z"/>
			<path d="M132.3,32.2c2.2,0,4.2,1.8,4.2,4.2c0,2.2-1.8,4.1-4.2,4.1c-2.3,0-4.2-1.8-4.2-4.1C128.2,34.1,130.1,32.2,132.3,32.2z
				 M128.2,5.2h8.2L135,28.1h-5.4L128.2,5.2z"/>
		</g>
		<g>
			<path d="M56.2,60.9c-4,0-6.8-2.1-8.8-3.7c-1.6-1.4-2.6-2.3-5-2.3c-2.4,0-3.4,0.9-5,2.3c-1.9,1.7-4.3,3.7-8.9,3.7
				c-4.6,0-7.2-2.1-9.1-3.7c-1.6-1.4-2.2-2.3-5.2-2.3v-6c5,0,7.2,2.1,9.1,3.7c1.6,1.4,2.7,2.3,5.1,2.3c2.4,0,3.5-0.9,5.1-2.3
				c1.9-1.7,4.4-3.7,9-3.7c4.6,0,6.9,2.1,8.8,3.7c1.6,1.4,2.9,2.3,4.9,2.3V60.9z"/>
		</g>
	</g>
</g>
</svg>
